<svg version="1.1" xmlns="http://www.w3.org/2000/svg" xmlns:xlink="http://www.w3.org/1999/xlink" width="522.53212" height="466.07079" viewBox="0,0,522.53212,466.07079"><g transform="translate(-3.2154,-5.48647)"><g stroke="none" stroke-miterlimit="10"><text transform="translate(224.21236,58.15573) scale(1.02703,1.02703)" font-size="40" xml:space="preserve" fill="#ffff00" stroke-width="1" font-family="&quot;Determination&quot;, Bits and Bytes" font-weight="normal" text-anchor="start"><tspan x="0" dy="0">SETTINGS</tspan></text><g fill="#ff0000" stroke-width="0.5"><path d="M341.76984,364.13994c0,1.57677 -0.78763,2.36591 -1.57602,2.76085c-1.45403,2.70938 -3.91179,5.32942 -6.73542,6.3868c-1.08109,0.40485 -2.30555,0.12675 -3.45943,0.16198c-4.18172,0.12768 -8.67802,-0.73814 -11.59603,-4.14408c-0.73027,-0.85237 -1.0276,-1.99707 -1.59436,-2.96589c-0.88646,-1.51533 -1.91331,-3.04411 -2.23159,-4.77059c-0.05498,-0.29821 -0.04076,-4.5748 -0.04076,-4.81279c0,-2.724 -0.34293,-5.69232 0.02365,-8.3847c0.24719,-1.81551 0.61208,-3.6309 0.60702,-5.46315c1.14114,-5.70568 0.68493,-14.00237 7.47101,-16.75736c11.1201,-4.5145 24.80531,5.18662 27.65203,15.68752c0,0 0.76557,3.06229 -2.29673,3.82786c-3.06229,0.76558 -3.82787,-2.29672 -3.82787,-2.29672c-1.56616,-7.26498 -11.69377,-14.07459 -19.11153,-11.38612c-3.64731,1.32191 -3.05768,8.81245 -3.60457,11.54691c-0.00495,1.88232 -0.34278,3.75116 -0.6236,5.61242c-0.36246,2.40243 0.02365,5.16918 0.02365,7.61335c0,1.24725 -0.39334,3.53568 0.29433,4.76627c0.32453,0.58074 0.80341,1.06612 1.12517,1.64841c0.34501,0.62435 0.42418,1.39725 0.86689,1.95659c0.29217,0.36914 0.83255,0.44166 1.23047,0.69322c2.26205,1.43004 2.98963,1.18641 5.63278,1.31579c0.49008,0.02399 1.00383,0.33478 1.46305,0.16198c1.39121,-0.52348 3.18735,-2.78542 3.54142,-4.15673l3.60986,-2.15836c0,0 3.15654,0 3.15654,3.15654z"/><path d="M355.76764,370.16464c-3.14972,-4.45307 -3.66649,-11.56425 0.44656,-15.15951c5.24186,-4.58196 17.49615,-4.55063 21.44919,1.42647c1.15212,1.74203 1.77385,6.23861 2.17875,8.24644c0.58188,2.40918 0.76457,4.38436 0.69221,6.84561c-0.02708,0.92092 0.20565,1.9048 -0.13544,2.76065c-0.51312,1.28745 -1.32095,2.49578 -2.33572,3.43973c-0.62363,0.58012 -1.61406,0.5599 -2.37509,0.94236c-0.80905,0.40658 -1.43877,1.19992 -2.31805,1.41615c-0.53897,0.13254 -4.54007,0.14643 -5.8372,0.13544c-2.31156,-0.01957 -3.86834,0.24662 -5.96666,-1.08674c-2.21422,-1.40699 -3.10021,-3.63396 -4.87968,-5.37558l-0.92453,-3.46263c0,0 0,-0.04657 0.00566,-0.12839zM364.25695,373.20294c0.19863,0.20084 0.40693,0.3884 0.62824,0.55809c0.90628,0.69487 3.4218,0.10766 4.49361,0.14388c0.72161,0.02438 1.46258,0.31535 2.16183,0.13544c0.55723,-0.14337 0.85827,-0.7896 1.37382,-1.04509c0.40259,-0.19951 0.89601,-0.13062 1.31676,-0.28826c0.36939,-0.1384 0.00929,-0.78935 -0.00993,-1.18333c-0.10173,-2.08583 0.001,-3.39299 -0.53841,-5.4606c-0.98162,-4.95254 -1.07532,-8.69682 -6.68812,-7.45783c-1.64303,0.36268 -5.10333,0.14556 -6.60253,1.13268c-0.13768,0.09066 -0.28473,0.23 -0.29853,0.39426c-0.12203,1.45214 -0.39955,8.48622 1.90138,7.61963c0,0 3.15654,0 3.15654,3.15654c0,1.10867 -0.38941,1.82794 -0.89467,2.29459z"/><path d="M412.88478,379.88474c-2.8233,-1.41165 -1.41165,-4.23494 -1.41165,-4.23494l0.44405,-0.81716c0.70209,-1.92314 0.44788,-3.72287 0.45333,-5.77022c0.00617,-2.32358 -0.50339,-4.48462 -0.37503,-6.79107c0.02169,-0.38972 -0.78098,0.03793 -1.16715,0.09472c-2.68807,0.39528 -2.91284,-0.22052 -4.44921,1.16139c-1.49517,1.34485 -2.76764,2.95081 -4.39279,4.13531l-4.6002,4.31268c-0.56509,0.53249 -1.3266,0.85882 -2.16432,0.85882c-0.95032,0 -1.80256,-0.41996 -2.38125,-1.08443c0,2.79605 0,5.5921 0,8.38815c0,0 0,3.15654 -3.15654,3.15654c-3.15654,0 -3.15654,-3.15654 -3.15654,-3.15654c0,-4.20872 0,-8.41744 0,-12.62616c0,-1.32907 -0.02668,-2.65841 0,-3.98721c0.01848,-0.92113 -0.24092,-1.91969 0.13544,-2.76064c1.46452,-3.27245 3.57243,-5.51992 7.58709,-3.71426c1.29483,0.58237 1.97242,2.09258 2.62788,3.35198c0.44601,0.85697 0.65046,1.75455 0.7794,2.66598l0.01126,-0.01054c3.31948,-4.54228 7.30497,-6.64549 12.71224,-6.98828c3.67365,-0.23289 5.41206,0.0414 7.4472,3.78658c0.54376,1.00065 0.09497,2.27796 0.22951,3.40884c0.5448,4.57898 1.26411,9.07103 -0.15123,13.56474l-0.78657,1.64409c0,0 -1.41165,2.82329 -4.23494,1.41164z"/><path d="M429.06386,383.90985c-3.15654,0 -3.15654,-3.15654 -3.15654,-3.15654c0,-5.74289 0,-12.1011 0,-17.84399c0,0 0,-3.15654 3.15654,-3.15654c3.15654,0 3.15654,3.15654 3.15654,3.15654c0,5.74289 0,11.48579 0,17.22868v0.61531c0,0 0,3.15654 -3.15654,3.15654z"/><path d="M424.0614,348.14188c0,-1.74331 1.41323,-3.15654 3.15654,-3.15654c1.74331,0 3.15654,1.41323 3.15654,3.15654c0,1.74331 -1.41322,3.15654 -3.15654,3.15654c-1.74331,0 -3.15654,-1.41323 -3.15654,-3.15654z"/><path d="M462.2906,386.9864c-3.15654,0 -3.15654,-3.15654 -3.15654,-3.15654l0.09424,-1.38089c0.60464,-2.40789 1.1533,-4.73822 1.13637,-7.23345c0,-3.37989 1.49356,-9.08165 -2.68552,-8.54972c-12.59011,1.60253 -7.7558,9.31863 -14.07708,16.31951c0,0 -2.232,2.23201 -4.46401,0c-2.23201,-2.23201 0,-4.46402 0,-4.46402c2.09859,-1.50711 2.90178,-8.78418 4.59376,-11.30454c4.10636,-6.1168 17.36865,-10.73026 22.09035,-3.05416c1.558,2.53287 0.85559,8.1383 0.85559,11.05292c-0.0154,3.01639 -0.59847,5.84731 -1.32487,8.7646l0.09425,-0.15026c0,0 0,3.15654 -3.15654,3.15654z"/><path d="M476.08067,394.1091c1.41165,-2.82329 4.23494,-1.41165 4.23494,-1.41165l0.58455,0.37631c2.30984,0.60451 4.23306,0.51405 6.61815,0.52106c1.95758,0.00576 3.8955,-0.39242 5.84206,-0.59994c0.6789,-0.07238 1.38468,0.23456 2.04706,0.06908c0.72815,-0.18192 1.28966,-0.77683 1.9785,-1.07479c0.4425,-0.1914 1.0058,-0.09881 1.3944,-0.38416c4.01835,-2.95069 3.42543,-7.05647 3.42543,-11.46702c0,-0.50488 0,-1.00977 0,-1.51465c-0.41368,0.38344 -0.85906,0.75841 -1.33706,1.12321c-1.67858,0.84239 -3.54554,1.96774 -5.46104,2.2766c-3.59276,0.57932 -6.6733,-0.5819 -9.30263,-2.68265c-0.46704,0.49687 -1.1825,0.87748 -2.27857,0.87748c-3.15654,0 -3.15654,-3.15654 -3.15654,-3.15654c0,-3.58821 -0.66342,-8.61965 0.96515,-11.90464c1.82368,-3.67852 3.7328,-3.01823 6.95765,-4.46774c8.51963,-3.82942 15.29691,-0.27371 17.33979,5.25424c2.58633,0.35519 2.58633,3.11912 2.58633,3.11912c0,3.69187 0,7.38371 0,11.07558c0,3.27436 0.37789,6.57047 -0.81138,9.70948c-1.77429,4.68315 -6.01704,8.15197 -10.84959,9.36067c-0.9301,0.23263 -1.92295,-0.04044 -2.87543,0.06907c-4.96179,0.57053 -9.68179,1.11171 -14.61343,-0.07888l-1.87669,-0.85431c0,0 -2.8233,-1.41165 -1.41165,-4.23494zM486.79639,372.0602c0.03513,-0.00081 0.07067,-0.00122 0.10661,-0.00122c2.05198,0 2.77002,1.33392 3.02128,2.26748c2.44305,2.00532 4.67248,1.51843 7.62542,0.04987c5.78502,-4.20995 2.48054,-11.81858 -6.18333,-8.01614c-1.35811,0.59605 -3.67466,0.26999 -4.11792,1.68535c-0.37451,1.19583 -0.4653,2.59207 -0.45206,4.01464z"/><path d="M338.16996,400.98324c3.15185,0.17196 2.97988,3.32382 2.97988,3.32382l-0.18631,2.64668c-5.23983,13.3252 -9.20016,27.04842 -14.82542,40.25118c-1.83736,4.31237 -2.93113,11.68791 -9.75316,11.08053c-3.38618,-0.30147 -3.75684,-5.21114 -4.23779,-7.33102c-1.71854,-7.5749 -3.20486,-15.16496 -4.83243,-22.75634c-0.48594,-2.26838 -2.72531,-9.38847 -4.49044,-15.23347c-0.20594,0.87507 -0.37925,1.63696 -0.48251,2.18039c-2.41907,12.73085 -1.85706,25.87693 -4.9685,38.36514c0,0 -0.76558,3.06229 -3.82787,2.29672c-3.06229,-0.76558 -2.29672,-3.82787 -2.29672,-3.82787c1.97204,-7.85962 3.81176,-46.69791 7.66298,-51.17928c6.78158,-7.89121 9.6187,5.92416 10.88827,10.2936c0.59898,2.06146 1.02762,4.16865 1.54088,6.25311c0.77846,3.16149 1.46446,6.34529 2.14685,9.52889c1.31212,6.1263 2.36535,12.26872 3.80118,18.37003c0.34254,1.45558 0.71489,2.90447 1.02704,4.36687c0.00383,0.01791 0.00777,0.03584 0.01183,0.05376c1.30645,-3.61251 3.00958,-7.2869 4.48836,-10.73588c4.66132,-10.87167 7.52548,-22.4047 11.98312,-33.33871l0.04694,-1.62828c0,0 0.17196,-3.15185 3.32381,-2.97989z"/><path d="M360.84445,429.9781c0,3.15654 -3.15654,3.15654 -3.15654,3.15654h-0.61531c-4.54557,0 -9.44437,-0.62626 -13.90447,0.35007c-0.1172,2.46326 -0.16767,5.18269 -0.16767,8.18428c0,0.11387 0.01128,0.231 0.02757,0.3496c2.46559,-0.44264 5.49434,0.75291 7.90986,0.24266c1.08067,-0.22827 2.00091,-0.97969 3.07654,-1.23062c0.40824,-0.09524 0.82766,-0.10249 1.2496,-0.0897c0.75189,-0.52391 2.39624,-1.30238 4.04057,0.34197c2.23201,2.23201 0,4.46402 0,4.46402l-2.84732,1.53983c-1.49243,-0.06806 -2.85804,0.89373 -4.32556,1.17366c-2.76502,0.52744 -7.00018,0.42219 -9.82657,0.05696c-1.58133,-0.20435 -3.50247,0.13584 -4.69325,-0.92453c-1.06058,-0.94441 -0.92453,-4.33236 -0.92453,-5.92388c0,-36.76723 8.81196,-37.15904 41.92107,-37.61389c0,0 3.15654,0 3.15654,3.15654c0,3.15654 -3.15654,3.15654 -3.15654,3.15654c-24.40467,-0.50864 -32.65994,-0.35638 -34.89659,16.65162c4.39348,-0.57614 8.92908,-0.19824 13.36075,-0.19824h0.61531c0,0 3.15654,0 3.15654,3.15654z"/><path d="M448.21846,431.20872c0,3.15654 -3.15654,3.15654 -3.15654,3.15654h-1.84593c-0.24453,0 -6.96517,0.014 -7.27403,-0.04076c-1.40352,-0.24885 -2.69736,-0.92712 -4.06877,-1.31574c-0.35901,-0.10173 -0.71892,-0.20005 -1.07953,-0.29574c0.16017,3.47814 0.22541,6.93526 0.15536,10.29628c0.31815,0.95447 0.53496,1.99051 0.4158,2.98953c-0.00767,0.06432 0.02299,-0.19701 0.084,-0.17525c1.19179,0.425 2.29334,1.09358 3.50581,1.4554c1.43489,0.4282 9.88182,2.10601 11.08596,2.22255c2.00261,0.1938 4.02358,0.05428 6.03547,0.07262c0.86247,0.00786 2.33991,-0.30027 3.0468,0.00993c0.3582,-0.7421 1.47706,-2.47389 3.85876,-1.67999c2.99456,0.99818 1.99638,3.99275 1.99638,3.99275l-1.76421,3.40846c-8.60157,1.38588 -17.87822,0.67433 -26.19572,-2.0176c-2.73076,-0.8838 -6.06744,-2.01909 -7.48577,-4.87295c-0.663,-1.33404 -0.34373,-2.98094 -0.81482,-4.39419c-0.04135,-3.01006 -0.74941,-8.10747 -1.32297,-13.41572c-0.7554,-0.54642 -1.5097,-1.53855 -1.08479,-3.23822c0.14432,-0.57729 0.37026,-1.01853 0.64192,-1.35453c-0.09226,-1.13245 -0.16769,-2.24971 -0.21836,-3.33321c-0.69499,0.52186 -1.38998,1.04374 -2.08497,1.5656c-9.43538,7.21732 -18.87194,14.23782 -28.46394,21.18703c-1.97854,1.43341 -8.19993,7.49666 -11.88526,3.60106c-3.67876,-3.88864 -1.77064,-30.69536 -1.77064,-36.89844c0,0 0,-3.15654 3.15654,-3.15654c3.15654,0 3.15654,3.15654 3.15654,3.15654c0,2.05103 0,4.10207 0,6.1531c0,2.10436 0,4.20872 0,6.31308c0,5.89754 0.83526,12.75653 -0.01536,18.60359c-0.02796,0.1922 -0.07889,0.41816 -0.17327,0.60394c0.09492,-0.06985 0.18529,-0.13456 0.24411,-0.17683c3.05469,-2.19522 5.8421,-4.7655 9.00582,-6.80044c8.04825,-5.17672 15.32173,-11.79612 22.93226,-17.61745c1.68649,-1.26641 3.37299,-2.53282 5.05948,-3.79923l1.23129,-0.92458c0.17345,-0.77403 0.40148,-1.44776 0.69371,-1.99869c2.61842,-4.93637 27.07449,-4.74365 32.93323,-4.74365c0,0 3.15654,0 3.15654,3.15654c0,3.15654 -3.15654,3.15654 -3.15654,3.15654c-7.00103,0 -13.76136,0.72722 -20.7244,1.22453c-1.20614,0.08614 -2.42078,-0.0799 -3.62765,-0.00466c-0.73959,0.04611 -2.08256,-0.41505 -2.69686,-0.263c0.24602,0.77928 0.10651,1.46526 -0.15115,2.00915c0.31417,2.9803 0.60186,6.03315 0.83518,9.10658c1.68813,0.42228 3.21408,0.80437 3.25032,0.81482c1.12338,0.32376 2.16593,0.92983 3.31495,1.14549c2.05181,0.38511 4.17515,-0.04075 6.26279,-0.04075h1.84593c0,0 3.15654,0 3.15654,3.15654z"/><path d="M498.67388,452.74457c0,3.15654 -3.15654,3.15654 -3.15654,3.15654l-2.35155,-0.04076c-3.50967,-1.22376 -5.74702,-3.07448 -8.02873,-5.7616v0.18458c0,0 0,3.15654 -3.15654,3.15654c-3.15654,0 -3.15654,-3.15654 -3.15654,-3.15654v-0.61531c0.00702,-1.82725 0.19299,-3.63601 0.45471,-5.43714c-0.18491,-0.26314 -0.36266,-0.53026 -0.53293,-0.80058c-3.70067,-5.87511 -1.67567,-8.46033 2.16303,-9.91541c0.11879,-1.5487 0.18001,-3.10382 0.41411,-4.63836c0.25327,-1.66019 0.65168,-3.31122 0.91758,-4.97154c-0.29176,0 -0.58351,0 -0.87527,0c0,0 -3.15654,0 -3.15654,-3.15654c0,-3.15654 3.15654,-3.15654 3.15654,-3.15654c8.93401,0 21.96442,-2.4327 19.71295,11.13718c-1.01849,6.1386 -4.29403,7.02838 -9.64677,8.59985c-1.98783,0.5836 -3.56551,0.9686 -4.80833,1.21605c-0.18939,1.10613 -0.40087,2.21895 -0.60354,3.3348c0.85697,1.00577 1.69196,1.95445 2.34537,2.3349c1.27601,1.58495 3.57749,4.81788 5.81215,5.41409l1.34031,-0.04075c0,0 3.15654,0 3.15654,3.15654zM493.69902,430.47445c0.99394,-0.35589 1.0051,-1.89805 1.17998,-2.9392c0.81169,-4.83251 -0.42292,-3.63025 -4.28413,-3.63025c-0.67156,0 -1.34312,0 -2.01468,0c-0.27469,1.98688 -0.71772,3.9616 -1.01957,5.94407c-0.106,0.69615 -0.17445,1.39675 -0.22883,2.09904c2.29733,-0.42572 4.57421,-0.83166 6.36723,-1.47365z"/><path d="M521.97567,446.67146c-3.15654,0 -3.15654,-3.15654 -3.15654,-3.15654c0,-8.81944 0,-18.2542 0,-27.07364c0,0 0,-3.15654 3.15654,-3.15654c3.15654,0 3.15654,3.15654 3.15654,3.15654c0,8.81944 0,17.63889 0,26.45833v0.61531c0,0 0,3.15654 -3.15654,3.15654z"/><path d="M519.43444,455.20581c0,-1.74331 1.41323,-3.15654 3.15654,-3.15654c1.74331,0 3.15654,1.41323 3.15654,3.15654c0,1.74331 -1.41323,3.15654 -3.15654,3.15654c-1.74331,0 -3.15654,-1.41323 -3.15654,-3.15654z"/></g><g fill="#ff0000" stroke-width="0.5"><path d="M165.7328,405.05847c-0.27532,-0.0929 -0.44767,-0.19139 -0.44767,-0.19139c-23.75714,-13.80737 9.01221,-53.12663 26.67347,-16.07832c0,4.86652 0.75622,5.29701 -2.07168,9.36949c-2.01583,2.90302 -4.87645,3.84481 -7.67966,5.64338c-5.59156,3.5876 -11.43182,5.37253 -16.47445,1.25684zM164.8702,398.28256c2.26658,-0.65788 3.02699,1.62334 3.02699,1.62334l-0.11782,0.19011c3.41401,4.31436 7.79701,2.02934 11.731,-0.5047c2.17899,-1.40357 4.73321,-2.16747 6.32034,-4.35662c1.69734,-2.34115 1.26165,-2.51219 1.26165,-5.29718c-13.73527,-25.66288 -32.04574,-2.21021 -22.22216,8.34504z"/><path d="M205.27954,413.09152c-2.64869,0 -3.01648,-7.09437 -1.87511,-10.04185l-0.04561,-0.01987c0,0 0,-1.00898 0.64099,-1.74495c1.05273,-5.16098 2.07304,-10.19709 2.49243,-15.41806c-0.17607,-0.59166 -0.11813,-1.11307 -0.11813,-1.11307c0.12747,-0.95437 0.18396,-1.85519 0.30871,-2.69968c0.00617,-0.34033 0.00933,-0.68172 0.00933,-1.02425c0,0 0,-1.69499 1.39567,-2.29364c0.40968,-0.44769 0.93848,-0.86883 1.62705,-1.26261c1.16489,-0.66618 2.67769,-0.35519 4.01682,-0.26856c4.22911,0.27359 9.72623,2.42773 11.42882,6.849c2.1659,5.62438 -1.02739,10.3948 -5.87849,12.89241c-1.21604,0.62608 -2.58846,0.90435 -3.92394,1.19971c-0.6196,0.13703 -1.25448,0.26919 -1.8894,0.3134c0.63437,0.62153 1.15422,1.44914 1.31069,1.63649c2.35089,2.81494 4.7979,5.50223 7.05283,8.39894l0.77341,1.1481c0,0 1.38675,2.08013 -0.69338,3.46688c-2.08013,1.38675 -3.46688,-0.69338 -3.46688,-0.69338l-0.55992,-0.8519c-2.6378,-3.39449 -6.66629,-6.61263 -8.71825,-10.40206c-0.01065,-0.01968 -0.02144,-0.03937 -0.03235,-0.05907c-0.27274,1.35275 -0.55065,2.71215 -0.82457,4.08324l-0.20378,-0.08877c-0.09787,0.17675 -0.21653,0.34038 -0.35268,0.48761c0.88095,3.38112 0.95508,7.50592 -2.47426,7.50592zM211.22149,393.61241c3.24459,-1.36416 8.55007,-0.12052 9.51577,-5.05537c0.87434,-4.46802 -4.22305,-5.83566 -7.41798,-6.36908c-0.44176,-0.07376 -0.90215,-0.43856 -1.31651,-0.26856c-0.12834,0.05265 -0.23402,0.12519 -0.32081,0.21407c-0.07382,4.01957 -0.54236,7.90064 -1.1885,11.76243c0.25241,-0.09378 0.49796,-0.18675 0.72802,-0.28348z"/><path d="M255.35881,400.02981c0,2.5 -2.5,2.5 -2.5,2.5h-1c-4.68805,-0.00718 -9.3228,-0.74661 -13.98163,-1.24862c-0.16837,3.0055 -0.3546,6.83916 0.18916,8.09412c0.55097,1.27159 2.73998,-0.51108 4.1258,-0.51216c3.22222,-0.00252 6.44445,0 9.66667,0c0.6052,0.04977 1.2104,0.09955 1.8156,0.14932l1.2506,-1.23654c0,0 1.92055,-1.60046 3.52101,0.32009c1.60046,1.92055 -0.32009,3.52101 -0.32009,3.52101l-2.7494,2.09679c-1.17258,0.04977 -2.34515,0.09955 -3.51773,0.14932c-3.67746,0 -14.74282,1.74576 -17.54086,-1.17883c-3.66656,-3.8324 -1.54995,-28.62379 3.50782,-31.26442c3.53503,-1.84562 14.02057,-2.86587 18.03304,-2.89008c0,0 2.5,0 2.5,2.5c0,2.5 -2.5,2.5 -2.5,2.5c-12.09424,-0.08913 -17.31904,1.76903 -17.79697,12.74316c4.59351,0.48791 9.17822,1.26468 13.79697,1.25684h1c0,0 2.5,0 2.5,2.5z"/><path d="M141.71193,400.50669c-2.46598,0.411 -2.87698,-2.05499 -2.87698,-2.05499l-0.32253,-2.1421c0,-5.09713 0,-10.19427 0,-15.2914c0,-0.67978 -0.04284,-1.35354 -0.0747,-2.0147c-2.34956,4.44754 -5.48458,9.52433 -10.3959,6.66205c-0.33954,-0.19788 -4.20963,-7.40216 -4.32723,-7.695c-0.10096,-0.25141 -0.12543,-0.76729 -0.12425,-1.1975c-0.41699,7.22775 -3.61467,14.27081 -4.32576,21.51642c0,0 -0.24876,2.48759 -2.73635,2.23883c-2.48759,-0.24876 -2.23883,-2.73635 -2.23883,-2.73635c0.62741,-6.17115 2.30837,-12.23061 3.81144,-18.23953c0.48862,-1.95338 1.19579,-6.66445 2.79904,-7.55703c5.64667,-3.14366 5.98449,1.12682 7.4046,3.99199c0.60438,1.21937 1.369,2.35682 1.94355,3.59053c0.30948,0.66452 0.41576,2.72803 0.74037,2.07077c1.55817,-3.15497 3.33822,-6.07314 5.23466,-9.04817l1.08648,-2.17297c0.40086,-0.84561 1.26228,-1.43041 2.26029,-1.43041c1.03175,0 1.91753,0.62501 2.29936,1.51707l1.41914,3.12211l-0.06816,0.03098c0.08347,0.15517 0.16222,0.31313 0.23558,0.47428c0.07581,0.16653 0.05666,6.73891 0.05666,6.87662c0,5.09713 0,10.19427 0,15.2914l0.2545,1.3201c0,0 0.411,2.46598 -2.05499,2.87698z"/></g><text transform="translate(9.0244,442.81775) scale(0.32096,0.27164)" font-size="40" xml:space="preserve" fill="#ffcd00" stroke-width="1" font-family="&quot;Determination&quot;, Bits and Bytes" font-weight="normal" text-anchor="start"><tspan x="0" dy="0">btw toggle spoilers by</tspan><tspan x="0" dy="46.15px">exiting and returning</tspan><tspan x="0" dy="46.15px">settings menu. stupid bug</tspan></text><text transform="translate(37.16698,176.80078) scale(0.5,0.5)" font-size="40" xml:space="preserve" fill="#ffcd00" stroke-width="1" font-family="&quot;Determination&quot;, Bits and Bytes" font-weight="normal" text-anchor="start"><tspan x="0" dy="0"> </tspan></text><text transform="translate(3.7622,20.25004) scale(0.36453,0.36453)" font-size="40" xml:space="preserve" fill="#ffffff" stroke-width="1" font-family="&quot;Determination&quot;, Bits and Bytes" font-weight="normal" text-anchor="start"><tspan x="0" dy="0">Your username:</tspan></text></g></g></svg>