<svg version="1.1" xmlns="http://www.w3.org/2000/svg" xmlns:xlink="http://www.w3.org/1999/xlink" width="42.04573" height="96.25835" viewBox="0,0,42.04573,96.25835"><g transform="translate(-348.27009,-191.87082)"><g fill="#ff0000" stroke="none" stroke-width="0.5" stroke-miterlimit="10"><path d="M369.82353,264.12918c-2.5,0 -2.5,-2.5 -2.5,-2.5v-1c0,-5.09415 -1.52801,-12.8382 1.37337,-17.31433c1.51882,-2.34317 4.38437,-3.47895 6.35886,-5.45344c0.79238,-0.79238 1.11702,-1.95634 1.83441,-2.81721c2.46832,-2.96199 4.77992,-4.65967 6.85236,-7.91442c3.84999,-9.40745 1.94597,-33.62405 -13.76364,-29.91076c-9.28796,2.19541 -11.14475,9.90113 -17.3876,16.17792c0,0 -1.76777,1.76777 -3.53553,0c-1.76777,-1.76777 0,-3.53553 0,-3.53553c7.02607,-6.98342 9.08211,-15.25167 19.89717,-17.53599c20.60231,-4.35155 24.5254,23.63593 19.23768,37.08792c-2.3049,3.60454 -4.75126,5.58185 -7.43373,8.80081c-0.8215,0.9858 -1.25821,2.27542 -2.16559,3.18279c-1.70772,1.70772 -4.25907,2.56603 -5.64114,4.54656c-0.94859,1.35935 -0.63388,3.20257 -0.62663,4.68567c0.0163,3.33307 0,6.66687 0,10v1c0,0 0,2.5 -2.5,2.5z"/><path d="M371.32353,285.62918c0,-1.38071 1.11929,-2.5 2.5,-2.5c1.38071,0 2.5,1.11929 2.5,2.5c0,1.38071 -1.11929,2.5 -2.5,2.5c-1.38071,0 -2.5,-1.11929 -2.5,-2.5z"/></g></g></svg>