<svg version="1.1" xmlns="http://www.w3.org/2000/svg" xmlns:xlink="http://www.w3.org/1999/xlink" width="697" height="528" viewBox="0,0,697,528"><g transform="translate(27.5,29)"><g fill="#9966ff" stroke="none" stroke-width="0" stroke-miterlimit="10"><path d="M12.26116,289.79821v-23.15055h47.14102v23.15055z"/><path d="M-27.5,3v-30h675v30z"/><path d="M634.5,484v-513h16v513z"/><path d="M-9.5,495v-18h679v18z"/><path d="M-12.5,499v-506h18v506z"/><path d="M80.54276,305.78377v-23.15055h47.14102v23.15055z"/><path d="M106.98505,360.10842v-23.15055h47.14102v23.15055z"/><path d="M46.68291,401.1708v-23.15055h47.14102v23.15055z"/><path d="M116.98505,436.38522v-23.15055h47.14102v23.15055z"/><path d="M63.63222,205.13766v-23.15055h47.14102v23.15055z"/><path d="M46.6829,106.95052v-23.15055h47.14102v23.15055z"/><path d="M116.98505,137.03823v-23.15055h47.14102v23.15055z"/><path d="M116.98505,50.54701v-23.15055h47.14102v23.15055z"/><path d="M296.42949,150.08893v-23.15055h47.14102v23.15055z"/><path d="M369.65561,122.92518v-23.15055h47.14102v23.15055z"/><path d="M436.67316,172.25266v-23.15055h47.14102v23.15055z"/><path d="M492.58933,86.01485v-23.15055h47.14102v23.15055z"/><path d="M344.20728,241.58016v-23.15055h47.14102v23.15055z"/><path d="M398.66146,326.24877v-23.15055h47.14102v23.15055z"/><path d="M460.91293,272.51582v-23.15055h47.14102v23.15055z"/><path d="M512.44314,205.13766v-23.15055h47.14102v23.15055z"/><path d="M556.06886,272.51582v-23.15055h47.14102v23.15055z"/><path d="M512.44314,324.29945v-23.15055h47.14102v23.15055z"/></g></g></svg>